<svg version="1.1" xmlns="http://www.w3.org/2000/svg" viewBox="0 0 32 32">
<path fill="currentColor" d="M12.663 12.978c-3.078-2.499-5.996-4.734-8.731-7.165-0.742-0.664-1.504-2.14-1.21-2.838 0.308-0.759 1.875-1.49 2.833-1.415 1.119 0.088 2.351 0.86 3.218 1.666 2.288 2.106 4.401 4.389 6.576 6.596 3.232-2.682 6.248-5.316 9.41-7.768 3.19-2.472 3.617-2.357 6.884 1.084-1.238 1.036-2.463 2.066-3.687 3.088-2.952 2.458-5.912 4.917-8.815 7.328 2.659 4.009 4.967 7.68 7.486 11.215 1.099 1.544 1.924 2.926-0.014 4.219-2.092 1.395-3.379-0.291-4.331-1.625-1.952-2.716-3.631-5.614-5.436-8.432-0.259-0.406-0.602-0.759-1.126-1.409-2.994 3.407-5.87 6.644-8.703 9.922-0.35 0.406-0.343 1.104-0.7 1.503-0.881 0.982-1.735 2.262-2.882 2.655-0.721 0.25-2.484-0.671-2.819-1.449-0.427-0.996-0.336-2.695 0.308-3.542 2.386-3.115 5.086-6.007 7.668-8.974 1.203-1.388 2.421-2.763 4.086-4.66h-0.014z"></path>
</svg>
