<svg width="97" height="99" viewBox="0 0 97 99" fill="none" xmlns="http://www.w3.org/2000/svg">
<g id="Cosmetics">
<path id="Crown" fill-rule="evenodd" clip-rule="evenodd" d="M92.783 64.79C93.7107 63.185 94.3032 61.2337 93.7036 59.2905C93.0795 57.2683 91.3987 55.9828 89.3711 55.2685C86.6006 54.2925 83.9072 54.5783 81.8129 56.0695C79.7699 57.5242 78.6314 59.8874 78.3942 62.4391C78.2716 63.7584 79.2418 64.9273 80.5611 65.0499C80.6621 65.0593 80.7622 65.0623 80.861 65.0592C81.6946 66.1925 82.848 67.055 84.0373 67.5595C86.8173 68.7389 90.7103 68.3763 92.783 64.79ZM84.4605 60.8042C84.5295 60.5424 84.5525 60.2793 84.5344 60.0235C84.5549 60.0079 84.5754 59.9928 84.596 59.9782C85.2281 59.5281 86.2438 59.2541 87.7767 59.7941C88.953 60.2085 89.0978 60.6378 89.1186 60.7053C89.1639 60.8518 89.2204 61.3652 88.6287 62.389C88.0699 63.3559 87.0641 63.6314 85.9113 63.1423C84.6848 62.622 84.238 61.648 84.4605 60.8042ZM67.9132 42.1447C68.3506 44.1476 68.1636 46.5587 67.3015 48.248C66.3724 50.0686 64.8769 51.1705 63.1684 51.5081C61.5503 51.8278 59.9613 51.4222 58.7428 50.6967C57.7582 50.1106 56.7987 49.1796 56.3056 47.9569C55.5763 47.4734 55.1388 46.607 55.247 45.6784C55.4283 44.121 56.0331 42.1052 57.124 40.441C58.2037 38.7941 60.1264 37.0014 62.9439 37.2215C66.1287 37.4703 67.4855 40.1865 67.9132 42.1447ZM61.3279 42.7994C61.346 42.8214 61.3637 42.8438 61.3811 42.8666C62.185 43.9199 61.9829 45.4254 60.9296 46.2293C60.8987 46.2529 60.8721 46.2747 60.8494 46.2944C60.9146 46.3695 61.0226 46.4698 61.1973 46.5738C61.5702 46.7958 61.9642 46.855 62.2383 46.8009C62.422 46.7646 62.7281 46.6538 63.0276 46.0669C63.2839 45.5648 63.4786 44.3277 63.2254 43.1684C63.1071 42.6264 62.9293 42.2954 62.794 42.1349C62.7002 42.0236 62.655 42.0118 62.5702 42.0052C62.294 41.9836 61.8672 42.0856 61.3279 42.7994ZM69.3724 71.031C69.1647 71.0715 68.8964 71.1216 68.695 71.1416C68.0521 71.2053 67.4032 71.2738 66.7485 71.3429L66.7484 71.3429L66.7482 71.3429C63.5189 71.6837 60.1484 72.0393 56.6682 71.913C54.9397 71.8502 53.3733 71.4488 52.1555 70.5134C50.8779 69.532 50.2706 68.1851 50.0923 66.8351C49.7693 64.3895 50.8129 61.6559 51.7846 59.6173C51.8751 59.4275 51.9776 59.2261 52.0863 59.0125L52.0865 59.0123C52.2584 58.6745 52.4458 58.3065 52.6253 57.9061C52.1518 58.1088 51.7225 58.3309 51.4545 58.4805C49.8157 59.3952 48.151 60.2454 46.5322 61.0722L45.9794 61.3547C44.1717 62.2791 42.4206 63.1856 40.7208 64.1761C40.658 64.2127 40.5535 64.2771 40.4159 64.3619L40.4143 64.3629L40.4121 64.3643L40.4119 64.3644C39.8366 64.7191 38.6911 65.4253 37.6132 65.9397C36.9353 66.2632 36.0913 66.6104 35.2457 66.7604C34.5239 66.8884 32.9707 67.014 31.8324 65.7829C30.623 64.4749 30.1539 62.8244 29.9063 61.5386C29.7782 60.8736 29.6938 60.2113 29.6231 59.6445L29.6102 59.541C29.5418 58.9918 29.487 58.5513 29.4152 58.1591C28.6392 53.9197 27.9655 49.5448 27.4014 45.2875C27.3815 45.1378 27.3555 44.898 27.3221 44.5899L27.2905 44.2989L27.2742 44.3418C27.0124 45.0315 26.6917 45.8449 26.3111 46.4933C24.4712 49.6277 22.8731 53.7481 22.1599 57.2837C22.1193 57.485 22.0843 57.7674 22.0332 58.2145L22.0263 58.2753C21.9811 58.6708 21.9248 59.1635 21.8415 59.6544C21.7661 60.0982 21.6444 60.7259 21.3915 61.3775C25.7451 64.6719 30.1949 67.8445 34.6782 71.0409L34.6782 71.041L34.6783 71.041L34.6787 71.0413L35.9508 71.9485C41.2981 75.7629 46.678 79.6263 51.8998 83.7344C52.0446 83.1141 52.4346 82.5524 53.0284 82.2064C58.6079 78.9553 64.6942 75.3335 69.3724 71.031ZM16.8733 59.7468C16.4733 60.1443 16.2416 60.651 16.1819 61.1748C15.7665 62.1564 16.0465 63.3315 16.9313 64.011C21.8436 67.7834 26.8823 71.3758 31.8819 74.9402L33.1643 75.8547C38.597 79.7301 43.9734 83.5925 49.1688 87.6912C50.209 88.5119 51.7176 88.3339 52.5383 87.2936C52.7684 87.0019 52.92 86.6734 52.9961 86.3336C53.7227 86.7713 54.6595 86.8094 55.4441 86.3522C62.1076 82.4695 70.4121 77.5719 75.8688 71.2229C76.255 70.7736 76.7736 70.0699 76.9141 69.171C76.9939 68.661 76.9533 68.068 76.6787 67.4872C76.4092 66.9174 75.9977 66.5348 75.6225 66.2922C74.95 65.8572 74.2118 65.7511 73.7798 65.7125C73.2799 65.6677 72.7608 65.683 72.293 65.7178C71.3532 65.7878 70.3429 65.9595 69.5719 66.104C69.2715 66.1603 68.9896 66.216 68.7586 66.2616L68.5673 66.2993C68.4028 66.3315 68.3056 66.3495 68.2551 66.3588L68.2545 66.3589L68.2543 66.3589C68.2339 66.3627 68.2212 66.365 68.2149 66.3663C68.2061 66.3681 68.2096 66.3679 68.2216 66.3667C67.5165 66.4366 66.8259 66.5091 66.1464 66.5805L66.1459 66.5805C62.9259 66.9186 59.9522 67.2308 56.8422 67.1179C55.692 67.0761 55.2275 66.8227 55.0784 66.7081C54.9891 66.6395 54.8935 66.5415 54.8492 66.2067C54.7272 65.2827 55.1598 63.6879 56.116 61.6819C56.1398 61.6319 56.185 61.5434 56.2456 61.4248L56.2456 61.4246L56.2457 61.4245L56.2457 61.4245L56.2457 61.4244C56.5006 60.9253 57.0282 59.8922 57.3887 58.9389C57.6191 58.3298 57.8594 57.5673 57.9358 56.7932C58.0048 56.0938 57.9947 54.8213 57.0494 53.7991C56.1649 52.8424 55.01 52.6492 54.2379 52.6429C53.4495 52.6365 52.6812 52.814 52.0701 53.0014C50.8317 53.3812 49.6631 53.9853 49.116 54.2907C47.5593 55.1596 45.9752 55.9687 44.3453 56.8013L44.3452 56.8014L43.7947 57.0827C41.9869 58.0071 40.1306 58.9666 38.3051 60.0303C38.1243 60.1356 37.9197 60.2614 37.6954 60.3993C37.0951 60.7683 36.3532 61.2244 35.5467 61.6092C35.3245 61.7152 35.1292 61.7995 34.9615 61.8646C34.8345 61.5551 34.7184 61.153 34.618 60.6313C34.5236 60.1412 34.456 59.6242 34.3845 59.0508L34.3675 58.9139C34.3042 58.404 34.2328 57.8295 34.135 57.2951C33.3752 53.1443 32.7133 48.8482 32.158 44.6572L32.1577 44.6544L32.1566 44.646L32.1531 44.6162L32.142 44.5186L32.1243 44.3575L32.1085 44.2118C32.0817 43.9655 32.0467 43.6434 32.0046 43.2754C31.9207 42.5422 31.807 41.6121 31.6701 40.7034C31.5368 39.8187 31.3681 38.8619 31.1616 38.1152C31.0675 37.7747 30.9171 37.292 30.6707 36.863C30.5579 36.6667 30.2983 36.2513 29.8222 35.9209C29.2218 35.5041 28.3001 35.263 27.3574 35.6732C26.225 36.1661 25.4592 37.068 24.9521 37.8299C24.4265 38.6195 24.0114 39.5164 23.6773 40.3238C23.434 40.9119 23.2012 41.5357 22.9969 42.0829L22.9969 42.083C22.9235 42.2798 22.8537 42.4668 22.7884 42.6386C22.5128 43.3646 22.3205 43.8133 22.1732 44.0642C20.0742 47.6399 18.2787 52.2586 17.4564 56.3348C17.3692 56.7671 17.3133 57.2555 17.2687 57.6458L17.2643 57.6845L17.2643 57.6848C17.2151 58.1144 17.1719 58.4919 17.1109 58.851C17.0489 59.2167 16.982 59.4745 16.9164 59.6466C16.8981 59.6946 16.8832 59.727 16.8733 59.7468ZM73.4324 70.5027C73.4319 70.5031 73.4214 70.5016 73.4026 70.4972C73.4235 70.5 73.433 70.5023 73.4324 70.5027ZM72.3162 67.9874C72.3249 67.9722 72.3304 67.9645 72.331 67.9644C72.3316 67.9643 72.3272 67.9719 72.3162 67.9874ZM34.3194 62.0466C34.3203 62.0456 34.3362 62.0434 34.3643 62.0429C34.3325 62.0473 34.3185 62.0476 34.3194 62.0466ZM53.1632 56.2927C53.1622 56.2717 53.163 56.2599 53.1636 56.2593C53.1643 56.2587 53.1648 56.2692 53.1632 56.2927ZM36.9804 32.8046C38.2894 32.0419 38.6849 30.7415 38.7627 29.8171C38.8392 28.9089 38.6607 28.0022 38.4501 27.2775C38.0407 25.8685 37.2559 24.3195 36.5015 23.4753C34.2185 20.9209 31.1204 19.83 28.2178 19.492C26.9016 19.3387 25.7105 20.2814 25.5572 21.5975C25.4941 22.14 25.6171 22.6612 25.8757 23.0973L25.8614 23.1056C24.7165 23.7726 24.3292 25.2415 24.9963 26.3863C25.7844 27.7389 27.2907 29.8615 29.1552 31.4271C30.883 32.878 33.8938 34.6031 36.9804 32.8046ZM32.2408 27.7526C31.1891 26.8694 30.2183 25.6384 29.5575 24.6374C30.9042 25.037 32.0548 25.7004 32.9238 26.6727L32.924 26.673C32.9277 26.6774 32.9748 26.7341 33.0571 26.8626C33.1384 26.9893 33.2331 27.1535 33.3322 27.3475C33.5334 27.7413 33.7195 28.1932 33.8425 28.6165C33.8527 28.6516 33.8622 28.6855 33.871 28.7184C33.4995 28.6297 32.9744 28.3686 32.2408 27.7526Z" fill="#F9F5F0"/>
</g>
</svg>
