<svg xmlns="http://www.w3.org/2000/svg" fill="none" viewBox="0 0 357 35">
  <path fill="#fff" d="M17 22v3a29 29 0 0 1-1 1l-1 1v1l-2 1h-1v1h-1l-1 1a81 81 0 0 1 0 2 4 4 0 0 1-2 0H6v-3H5a10 10 0 0 1-2 1l-1-1v-3l1-1h2v-1h1v-3a50 50 0 0 0 0-1v-1H3v-1l-1-1-1-1v-1l-1-1a186 186 0 0 0 2-5 15 15 0 0 1 1-1l1-1a9 9 0 0 1 2-1h1l1-1V4a3 3 0 0 1 2 0 5 5 0 0 0 1 0h1v1l1 1v1h2l1 1a37 37 0 0 1 0 4h-1l-1-1h-1l-1 1v5h1l1 1 2 1v1h1v2ZM7 14v-2H6a5 5 0 0 0-1 1v3h2v-2Zm6 10v-1l-1-1-1-1v2l-1 1 1 1h1l1-1Zm25 1v2l-1 1-1 1v1h-1l-1 1h-3l-1 1h-2l-1-1-1 1-1-1h-3v-1 1h-1l-1-2a26 26 0 0 1 1-1v-1h-1v-4a13 13 0 0 1 0-2v-4a7 7 0 0 0 0-2V8a67 67 0 0 1 0-2V5h2a64 64 0 0 1 3 0h3l2 1h4v1h1l1 1 1 1a5 5 0 0 1 1 2v3l-1 1v1h-1v1h-1v2h1v1a10 10 0 0 1 1 1v1a17 17 0 0 0 1 2v1Zm-6-11v-1l-1-1-1-1a31 31 0 0 0-3 0l-1-1v1a20 20 0 0 1-1 2v1l1 1v1l1-1 1 1h2l1-1h1v-1Zm1 10v-2h-1a6 6 0 0 0-1-1h-5v3a119 119 0 0 0 0 1v1h4a4435 4435 0 0 1 3-2Zm22-11-1 1v2h-1v1h-3v1h-1l-1 1v2a119 119 0 0 1-1 3v2a7 7 0 0 1 0 1 11 11 0 0 1 0 2l-1 1-1 1-1-1h-3v-6a4 4 0 0 1 0-1v-2a14 14 0 0 1 0-1l-1-1 1-1v-1a2613 2613 0 0 0 0-2v-3a3 3 0 0 0 0-1h4v2l1 1 1-1 1-1a25 25 0 0 0 1 0h4a17 17 0 0 1 1 0v1h1Zm20 6v3l-1 1v1h-1v2h-1v1h-1a17 17 0 0 0-2 1l-2 1h-5l-1-1-1-1-1-1-1-1a4 4 0 0 0 0-1 477 477 0 0 1-1-1v-4h1a8 8 0 0 1 0-1v-1l1-1v-2h1v-2h1a15 15 0 0 1 2-1h6v1h1l1 1h1a5 5 0 0 0 0 1l1 1 1 1v1l1 1v1Zm-6 2v-2a45 45 0 0 0-1-2l-2-1h-1v1h-1l-1 1v1l-1 1v1a7 7 0 0 1 1 1v1a119 119 0 0 0 1 0l1 1v-1h1v1l1-1h1l1-1v-1Zm25-7h-1v1a3 3 0 0 0-1 1v1h-4v-1 1h-3v1h-1a5 5 0 0 0-1 1v2a333 333 0 0 0 1 1v1a889 889 0 0 0 2 1h1a27 27 0 0 1 1 0h2a3 3 0 0 1 1-1v1h1v2h1v2h-1a477 477 0 0 0-3 2h-5a5 5 0 0 0-1-1h-1l-1-1-1-1h-1v-1l-1-1v-3l-1-1h1v-5l1-1v-2h1a9 9 0 0 1 1-1h1l1-1h1l1-1 1 1v-1l1 1a94 94 0 0 1 2-1l3 1v1h1l1 1v1Zm18 0v1a3 3 0 0 0-1 1l-1 1h-3v-1h-1v1h-2l-1 1a5 5 0 0 0-1 1v3l1 1a3 3 0 0 1 0 1h3a26 26 0 0 1 1 0h1a3 3 0 0 1 1-1l1 1v1h1v3h-1v1h-1v1h-6a5 5 0 0 0-1-1h-2l-1-1v-1h-1v-1l-1-1v-1l-1-1v-2h1l-1-1 1-1v-1h-1l1-1v-2l1-1v-1h1a9 9 0 0 1 0-1h2v-1h2l1-1v1l1-1 1 1a96 96 0 0 1 2-1l2 1h1v1h1v2Zm21 5-1 1v4h-1v2h-1l-1 1h-1a17 17 0 0 0-1 1l-2 1h-6v-1h-1v-1l-1-1-1-1a4 4 0 0 0-1-1v-5a8 8 0 0 1 1-1v-2l1-1v-1l1-1v-1h1a15 15 0 0 1 2-1h6v1h1l1 1h1a5 5 0 0 0 0 1v1h1v1h1v2l1 1Zm-6 2v-2a47 47 0 0 0-2-2l-1-1h-1l-1 1h-1v1l-1 1v2a7 7 0 0 1 0 1v1h1a26 26 0 0 1 2 1v-1l1 1v-1h2v-1l1-1Zm19 6-1 1v1a2 2 0 0 1 0 1h-3a14 14 0 0 1-1 0h-1l-1-1-1-1-1-1-1-2v-3h-1v-1l1-1h-1l1-1V8h1V6h1v1h2a3 3 0 0 0 2 0v1a19 19 0 0 0 0 2 125 125 0 0 0-1 6 5 5 0 0 0 0 2v5h1v2h3v1h1v1Zm9-18h1a4 4 0 0 1-1 2 112 112 0 0 0-1 1h-5v-1a73 73 0 0 0 0-4V6h1l1-1h3v1l1 1a90 90 0 0 0 0 2Zm0 9v10l-1 1v2h-4l-1-1V18a6 6 0 0 1 0-1l1-1h2a95 95 0 0 0 1 0v1h2v1Zm32-8v2h-1v1h-1v1l-1 1h-1l-1-1h-1v-1h-5v1h-1a6 6 0 0 0-1 1v2h-1v3l1 1v1a7 7 0 0 0 1 1h2l1 1h3l1-1a11 11 0 0 1 1 0h1v1l2 4a36 36 0 0 0-3 2h-3a36 36 0 0 0-1 1h-1a49 49 0 0 0-1 0l-1-1h-4a12 12 0 0 0-2-2l-1-1v-1h-1v-2a125 125 0 0 1-1-3v-8h1a3 3 0 0 0 0-1l1-1h1V9h1l1-1h1V7h2l1-1h6l1 1h1l1 1h1l1 1v1Zm20 9v5h-1v1l-1 1-1 1h-1a18 18 0 0 0-1 1l-2 1h-6v-1h-1v-1l-2-1v-1a4 4 0 0 0-1-1v-5a9 9 0 0 1 0-1h1v-3h1v-1l1-1v-1a16 16 0 0 1 3-1h5l1 1h1l1 1h1a6 6 0 0 0 0 1v1h1v1l1 1v2Zm-5 2v-2h-1 1a42 42 0 0 0-2-2l-1-1h-2v1h-1v1l-1 1v2a7 7 0 0 1 0 1v1a26 26 0 0 1 2 1l1-1 1 1v-1h2v-1l1-1Zm15-12a4 4 0 0 1 0 2h-1v1h-5l-1-1a50 50 0 0 0 0-2V6h1l1-1h3l1 1v1h1v2Zm0 9v2l-1 1h1v2h-1v7l-1 1h-3l-1-1h-1V18a6 6 0 0 1 1-1v-1h4v1h2v1Zm19 6v1h-1v3h-2v1h-1v-1h-1v-3l-1-1a10 10 0 0 0 0-2v-1a16 16 0 0 0-1-2h-1v-1h-1l-1 1v1h-1v9h-5v-4a11 11 0 0 0 0-2v-2a38 38 0 0 1 0-3v-1l1-1v-1l1-1h1v-1l1-1a66 66 0 0 1 1 0h2a38 38 0 0 1 1 1l1-1v1l1 1h1l1 1v1h2v2l1 1v2h1l-1 1 1 1-1 1h1Zm7-19h-1v1a5 5 0 0 0 0 1l-1 1h-3V7h1V1h3a31 31 0 0 1 1 2v2Zm15 9v1h-1v1h-2v-1h-4v2l1 1h1l1 1a11 11 0 0 0 1 1h1v1h1a10 10 0 0 1 0 3 73 73 0 0 1 0 2v1l-1 1-1 1-1 1a19 19 0 0 1-1 0l-1 1h-1l-1-1-1 1-1-1-1-1h-1v-2l1-1v-1a14 14 0 0 1 1 0l1 1h2v-1h1v-2h-1v-1h-1l-1-1h-1l-1-1v-1h-1v-2h-1v-2a44 44 0 0 0 1-1v-1l2-2a59 59 0 0 0 1-1h1a29515 29515 0 0 1 2 0l1-1 1 1h1l1 1 1 1a81 81 0 0 1 1 1v1Zm26-4-1 1v1h-4v-1h-3a133 133 0 0 0 0 2 140 140 0 0 0 1 1 19 19 0 0 0 2 2 203 203 0 0 0 1 1l1 1a16 16 0 0 1 1 2h1v2l1 1v3a3 3 0 0 1-1 1 7 7 0 0 1-1 1l-1 1v1h-1l-1 1h-3l-1 1-1-1h-1l-1-1h-1v-1h-1v-2h1v-1l1-1v-1h1l1 1h2a22 22 0 0 1 1 0v-1h1v-2l-1-1-2-1h-2v-1h-2v-1h-1v-1l-1-1v-4a48 48 0 0 1 1-1V9a34 34 0 0 1 1-1V7h1V6h1l1-1a8 8 0 0 1 2 0h4l1 1 1 1 1 1a26 26 0 0 1 1 2Zm15 17v2l-1 1-2 1h-1l-1-1h-3v-1l-1-1v-1h-1v-9h-1a13 13 0 0 1-1 0l-1-1v-1a4 4 0 0 0 0-1 7 7 0 0 1 0-1v-1h1v-1h3l1-1 1-1h-1V7l1-1h1l2 1h1v4l1 1h1l1 1v4h-3l-1 1a80 80 0 0 0 0 1l-1 1v3l1 1 1 1 1-1a95 95 0 0 1 1 0v1h1v1a16 16 0 0 0 0 1Zm21-8v1h-1v1c1 0 1 0 0 0v3h-1v2h-1v1h-1a18 18 0 0 0-2 1l-2 1h-6v-1h-1v-1l-1-1-1-1a4 4 0 0 0-1-1v-5a9 9 0 0 1 1-1v-2l1-1v-1h1v-2h1a16 16 0 0 1 2-1h6v1h1l1 1h1a6 6 0 0 0 0 1l1 1v1h1v2l1 1Zm-6 2v-2a42 42 0 0 0-2-2l-1-1h-1v1h-2v2h-1v2a7 7 0 0 1 0 1l1 1a26 26 0 0 1 2 1v-1l1 1 1-1h1v-1l1-1Zm22-8v3h-1v1h-3v1h-1l-1 1v2h-1a37 37 0 0 0 0 2v2l-1 1a6 6 0 0 1 0 1 11 11 0 0 1 0 2v1l-1 1-1-1h-3v-6a4 4 0 0 1 0-1v-2a14 14 0 0 1-1-1v-5h1v-3a3 3 0 0 0 0-1h4v2l1 1v-1h1v-1a26 26 0 0 0 2 0h4a16 16 0 0 1 1 0v1Zm21 1v1a8 8 0 0 0-1 1v1a19 19 0 0 0-2 3v1a203 203 0 0 0-1 0v2h-1v1l-1 1v1l-1 1-1 1v1l-1 1-1 1v1h-1v1l-2 2h-2v-1h-1l-1-1v-1h1v-1l1-2a19 19 0 0 0 1-1 19 19 0 0 0 1-1v-1a5 5 0 0 1 1-1v-1l1-1a37 37 0 0 0-1 0v-1l-1-1a15 15 0 0 0-2-1v-1a2 2 0 0 1-1-1l-1-1v-1h-1v-1l2-2v-1h2a132 132 0 0 1 5 5h1v-2a9 9 0 0 0 1-1l1-1v-1h1v-1h2v1h2v1l1 1Z"/>
</svg>
