<svg version="1.1" xmlns="http://www.w3.org/2000/svg" width="30" height="32" viewBox="0 0 30 32">
<path fill="#fbbc05" opacity="0.15" d="M15.037 9.017c-1.318-0.807-1.874-2.562-1.527-4.062 0.53-2.431 2.674-5.268 5.447-4.827 1.015 0.176 1.797 1.099 2.006 2.123 0.199 0.999-0.076 2.058-0.524 2.986-0.722 1.516-1.914 2.825-3.37 3.662-0.374 0.221-0.818 0.414-1.239 0.391-0.276-0.027-0.559-0.139-0.793-0.272zM3.056 12.717c0.294 1.017 0.935 2.088 2 2.243 0.622 0.082 1.251-0.161 1.786-0.481 2.789-1.62 6.192-7.439 1.491-9.009-3.802-1.256-6.132 4.332-5.278 7.248zM1.874 19.597c0.841-0.678 1.84-1.111 2.838-1.544 0.499-0.217 0.999-0.433 1.479-0.68 0.719-0.371 1.408-0.813 2.097-1.254 1.033-0.663 2.066-1.326 3.203-1.748 1.906-0.68 4.402-0.472 5.502 1.252 0.345 0.548 0.504 1.177 0.658 1.786 0.014 0.057 0.029 0.113 0.043 0.169 0.269 1.145 0.532 2.293 0.796 3.443 0.313 1.364 0.627 2.731 0.951 4.103 0.623 2.723 0.274 6.043-2.986 6.782-2.429 0.555-4.48-1.872-5.812-3.524-0.835-1.046-2.045-2.077-3.394-1.873-0.349 0.049-0.673 0.187-1 0.327l-0 0c-0.14 0.060-0.281 0.12-0.425 0.174-4.334 1.44-7.552-4.559-3.949-7.413zM21.456 7.172c-1.039 0.92-1.91 2.090-2.106 3.466s0.504 2.921 1.793 3.389c1.122 0.423 2.365-0.028 3.465-0.535 1.386-0.66 2.761-1.55 3.497-2.896s0.601-3.283-0.64-4.182c-2.227-1.616-4.048-0.944-6.009 0.758zM21.566 22.851c-0.456-0.917-0.299-2.042 0.16-2.945 0.757-1.502 2.259-3.18 3.897-3.598 2.765-0.73 4.824 1.517 3.56 4.148-1.061 2.221-5.878 5.865-7.618 2.394z"></path>
</svg>
