<svg xmlns="http://www.w3.org/2000/svg" fill="none" viewBox="0 0 331 39">
  <path fill="#fff" d="m19 25-1 1v2l-1 1v1h-2v1h-4l-1 1H9l-1-1-1 1-1-1H3v-1 1H1v-2a27 27 0 0 1 0-1v-5a13 13 0 0 1-1-2v-4a7 7 0 0 0 0-2v-1h1v-3L0 9h1V8a70 70 0 0 1-1-2h1V5h1a64 64 0 0 1 3 0h3l2 1h4l1 1h1v1h1l1 1a5 5 0 0 1 0 2v5h-1v1h-1l-1 1v1h1l1 1a10 10 0 0 1 0 1l1 1a17 17 0 0 0 1 2v1Zm-7-11v-2h-1v-1a31 31 0 0 0-3 0H7v-1l-1 1a20 20 0 0 1 0 2v2l1 1v-1h1v1h3v-1h1v-1Zm2 10v-1l-1-1a6 6 0 0 0-1-1H7l-1 1h1v4h4l1-1 2-1Zm21-11v2l-1 1v1h-3l-1 1-1 1v1l-1 1a119 119 0 0 0-1 3c1 0 1 0 0 0v2a7 7 0 0 1 0 1 11 11 0 0 1 0 2v1h-1l-1 1v-1h-3v-3l-1-2h1v-1a4 4 0 0 1 0-1v-1l-1-1a14 14 0 0 1 0-1v-3a2613 2613 0 0 1 0-2v-3h1a3 3 0 0 0 0-1h3l1 1v2h1v-1h1v-1a25 25 0 0 0 2 0h3a17 17 0 0 1 2 0v1Zm20 6v5h-1v1l-1 1-1 1h-1a17 17 0 0 0-1 1l-2 1h-6v-1h-1v-1l-2-1v-1a4 4 0 0 0-1-1v-5a8 8 0 0 1 0-1h1v-3h1v-1l1-1v-1a15 15 0 0 1 3-1h6v1h1l1 1h1a5 5 0 0 0 0 1v1h1v1l1 1v2Zm-5 2v-2a45 45 0 0 0-2-2l-1-1h-1l-1 1h-1v1l-1 1v2a7 7 0 0 1 0 1v1h1a27 27 0 0 1 1 1l1-1 1 1v-1h2v-1l1-1Zm24-7v1a3 3 0 0 0-1 1l-1 1h-3v-1h-1v1h-2l-1 1a5 5 0 0 0-1 1v4h1a3 3 0 0 1 0 1h3a27 27 0 0 1 1 0h1a3 3 0 0 1 1-1l1 1v1h1v3h-1v1h-1v1h-6a5 5 0 0 0-1-1h-2l-1-1v-1h-1l-1-1v-1l-1-1c1 0 0 0 0 0v-5l1-1h-1l1-1v-3h1v-1h1a9 9 0 0 1 0-1h2v-1h2l1-1v1l1-1 1 1a94 94 0 0 1 2-1l2 1h1v1h1v2Zm19 0-1 1a3 3 0 0 0-1 1v1h-3v-1h-1v1h-3v1h-1a5 5 0 0 0 0 1v1h-1 1l-1 1a333 333 0 0 1 1 1v1a889 889 0 0 1 2 1h1a27 27 0 0 1 2 0h1a3 3 0 0 1 1-1l1 1v1a1333 1333 0 0 1 0 3 477 477 0 0 1-3 2h-5a5 5 0 0 0 0-1h-1a889 889 0 0 0-5-6v-6l1-1v-2h1v-1a9 9 0 0 1 1-1h1l1-1h1l1-1 1 1v-1h1v1a93 93 0 0 1 2-1h1l2 1 1 1h1v2Zm20 5v3l-1 1v1l-1 1v1h-1v1h-1a17 17 0 0 0-2 1l-1 1h-6l-1-1v-1h-1l-1-1-1-1a4 4 0 0 0 0-1 477 477 0 0 1 0-1h-1v-1s1 0 0 0v-2h1v-1a8 8 0 0 1 0-1 899 899 0 0 1 0-1h1v-2l1-1v-1h1v-1a15 15 0 0 1 2-1h6v1h1l1 1h1a5 5 0 0 0 1 1v1l1 1v1l1 1v1Zm-6 2v-2a47 47 0 0 0-1-2l-2-1h-1v1h-1v1h-1v2l-1 1a7 7 0 0 1 1 1v1a27 27 0 0 1 2 1l1-1v1l1-1h1l1-1v-1Zm19 6v2a2 2 0 0 1 0 1h-3a14 14 0 0 1-2 0 596 596 0 0 1-4-5l-1-1V14l1-2V7h1V6h1v1a95 95 0 0 0 2 0h2v1a17 17 0 0 0 0 2 99 99 0 0 0-1 6 5 5 0 0 0-1 2v1l1 1-1 1h1v2a112 112 0 0 0 2 2h1l1 1v1Zm10-18a4 4 0 0 1 0 2h-1v1h-5l-1-1a50 50 0 0 0 0-2V6h1l1-1h3l1 1v1h1v2Zm0 9v2l-1 1h1v2h-1v7l-1 1h-3l-1-1h-1V18a6 6 0 0 1 1-1v-1h4v1h2v1Zm32-1v5h-1v1a23 23 0 0 0 0 2l-1 1a9 9 0 0 1 0 1 14 14 0 0 0-2 1 272 272 0 0 0-2 1h-1a18 18 0 0 1-1 1h-2l-1 1h-1a4 4 0 0 0-1-1h-1v1a210 210 0 0 0-4-1h-2l-1-1a41 41 0 0 1 1-2h-1v-6l1-1h-1a48 48 0 0 1 0-1v-4l1-1-1-1v-1l1-1v-1l-1-1 1-1V7a133 133 0 0 1 1 0h2l2-1h7l1 1V6l1 1h1a98 98 0 0 0 4 3v2h1v5Zm-6-1v-1h-1l-1-1h-1l-1-1-1-1h-2a16 16 0 0 1-1 1h-1v1a483 483 0 0 0 0 7v2l1 1h2a9 9 0 0 0 1-1h3l1-1v-1l1-1v-1a4 4 0 0 0 0-2v-1Zm26 3v5h-1v1l-1 1-1 1h-1a17 17 0 0 0-1 1l-2 1h-6v-1h-1v-1l-2-1v-1a4 4 0 0 0-1-1v-5a7 7 0 0 1 0-1h1v-3h1v-1l1-1v-1a15 15 0 0 1 3-1h5l1 1h1l1 1a5 5 0 0 0 1 1v1h1v1l1 1v2Zm-5 2v-1l-1-1a47 47 0 0 0-1-2l-1-1h-2v1h-1v1l-1 1v2a7 7 0 0 1 0 1v1a27 27 0 0 1 2 1l1-1 1 1v-1h2v-1l1-1Zm26 0v1h-1l1 1-1 1 1 1-1 1a10 10 0 0 1 0 1v1a10 10 0 0 1 0 2 29 29 0 0 0-2 4h-1l-1 1h-1v1h-1v1h-1l-1 1h-1l-2-1v-3h1v-1h1l1-1 1-1v-3c0-1 0 0 0 0h-5a19 19 0 0 0-2-1h-1v-1h-1v-3h-1v-3a4 4 0 0 1 0-1 12 12 0 0 0 0-1h1v-1h-1l1-1 1-1v-1a7 7 0 0 1 2-1l1-1h1v-1h6l1 1v-1h1a26 26 0 0 1 1 1 11 11 0 0 0 1 1 48 48 0 0 1 1 4v1h1v3Zm-6 0v-3h-1v-1h-4a3 3 0 0 0 0 1h-1a95 95 0 0 1-1 1 23 23 0 0 0 1 3h2a1910145525608 1910145525608 0 0 0 2 0h1a87 87 0 0 0 1-1Zm13-16-1 1v2h-4l1-1V1h4v4Zm15 9v1h-1v1h-2v-1h-3l-1 1v1h1v1h1l1 1a11 11 0 0 0 2 1l1 1a9 9 0 0 1 0 3 50 50 0 0 1 0 1 10 10 0 0 0 0 2v1h-1v1h-1l-1 1a19 19 0 0 1-1 0l-1 1h-1l-1-1v1h-1l-1-1-1-1h-1v-2l1-1v-1a14 14 0 0 1 1 0h1v1h2l1-1v-2h-1v-1h-1l-1-1h-1l-1-1v-1h-1v-4a37 37 0 0 0 0-1l1-1 1-2a59 59 0 0 0 1-1h1a29515 29515 0 0 1 2 0l1-1 1 1h1l1 1a6 6 0 0 0 1 0v1a81 81 0 0 1 1 1v1Zm26-4-1 1v1h-4v-1h-2a133 133 0 0 1-1 2 140 140 0 0 1 1 1 19 19 0 0 0 2 2 87 87 0 0 1 1 1h1l1 1v1a27 27 0 0 1 1 1v2l1 1v3a3 3 0 0 1-1 1 7 7 0 0 1-1 1l-1 1v1h-1l-1 1h-3v1l-2-1h-1l-1-1h-1v-1h-1v-1l1-1v-1l1-1 1-1 2 1h3v-4a18 18 0 0 1-1 0l-2-1h-2v-1h-2v-1h-1v-1l-1-1v-4a48 48 0 0 0 1-1V9h1V7a59 59 0 0 1 1-1h1l1-1a8 8 0 0 1 2 0h4l1 1h1v1h1v1a24 24 0 0 1 1 2Zm16 17-1 1v1l-1 1-2 1h-1l-1-1h-2l-1-1-1-1v-1l-1-1v-6l1-1-1-1h-1a12 12 0 0 1-1 0v-2a4 4 0 0 0-1-1 9 9 0 0 1 1-1v-2h3l1-1 1-1h-1V9h1V8h-1V7a12 12 0 0 0 1 0V6a269 269 0 0 1 1 0l2 1h2l-1 1v3l1 1h2v1a14 14 0 0 1 0 3v1h-3l-1 1a80 80 0 0 1 0 1v1h-1v3l1 1 1 1 1-1a95 95 0 0 0 1 0v1h1a133 133 0 0 1 1 2Zm20-8v2l-1 1h1l-1 1v1h-1v2h-1v1h-1a17 17 0 0 0-2 1l-2 1h-6v-1h-1v-1l-1-1-1-1a4 4 0 0 0-1-1v-5a7 7 0 0 1 1-1v-2h1v-2h1v-2h1a15 15 0 0 1 2-1h6v1h1l1 1h1a5 5 0 0 0 0 1l1 1a955396626067 955396626067 0 0 1 2 4Zm-6 2v-2a47 47 0 0 0-1-2l-2-1h-1v1h-1l-1 1v1h-1v2a7 7 0 0 1 1 1v1a27 27 0 0 1 2 1v-1l1 1 1-1h1l1-1v-1Zm23-8-1 1v2h-1v1h-3v1h-1l-1 1v2a12 12 0 0 0-1 2v3a7 7 0 0 1 0 1 11 11 0 0 1 0 2l-1 1-1 1a51 51 0 0 0-3-1h-1v-6a4 4 0 0 1 0-1v-2a12 12 0 0 1 0-1h-1v-2h1v-1a261 261 0 0 1 0-2v-3a3 3 0 0 0 0-1h4v2l1 1 1-1 1-1a26 26 0 0 0 1 0h4a17 17 0 0 1 1 0v1h1Zm20 1v1a9 9 0 0 0 0 1l-1 1a19 19 0 0 0-2 3v1a87 87 0 0 1-1 2h-1v1l-1 1v1l-1 1-1 1v1l-1 1v1h-1v1h-1v1l-2 2h-1l-1-1h-1v-1h-1v-1h1v-1h1v-2a16 16 0 0 0 1-1l1-1a9 9 0 0 1 0-1 5 5 0 0 1 1-1v-1l1-1a37 37 0 0 0-1 0v-1l-1-1a15 15 0 0 0-2-1v-1a2 2 0 0 1-1-1v-1h-1v-1h-1v-1l2-2v-1h2a100 100 0 0 1 5 5h1v-1l1-1a8 8 0 0 0 0-1l1-1a48 48 0 0 0 1-2h2v1h2l1 1v1Z"/>
</svg>
