<svg xmlns="http://www.w3.org/2000/svg" fill="none" viewBox="0 0 102 14">
  <path fill="#A0C1D7" d="M11 7v3l-1 1a7 7 0 0 0-1 1 4 4 0 0 1-1 1 7 7 0 0 1-1 0H5a2 2 0 0 0-1 0 102 102 0 0 0-2 0H1a24 24 0 0 1 0-1V1h8v1h1v1h1v4ZM8 6V5H7L6 4H5a8 8 0 0 1-1 0v6h1a5 5 0 0 0 1 0c0-1 0-1 0 0l1-1h1V8a2 2 0 0 0 0-1V6Zm13 2v3h-1l-1 1a9 9 0 0 0-1 0v1h-3v-1h-1l-1-1a2 2 0 0 0 0-1 119 119 0 0 0 0-1V5h1V4a8 8 0 0 1 1-1h3v1h1v1h1v1h1v2Zm-2 0h-1V7a22 22 0 0 0 0-1h-2v1h-1v1a3 3 0 0 1 0 1v1a13 13 0 0 1 1 0h1l1-1 1-1Zm12 2v2h-3v-2a56 56 0 0 1 0-1V8a1 1 0 0 0-1-1h-1a222 222 0 0 0 0 1h-1c1 0 1 0 0 0l1 1h-1 1v1h-1 1l-1 1v2h-2v-2a5 5 0 0 0 0-2 19 19 0 0 1 0-2V6l1-1V4h2a18 18 0 0 1 1 0h1v1h1v1h1v2h1v2Zm11 2v1h-2v1l-1-1a9 9 0 0 0-1-1 9 9 0 0 1-1 1h-2a24 24 0 0 0-2 0v-1l-1-1a24 24 0 0 0 0-2 899 899 0 0 0 3-3h1l1 1V5h-3V3h5v1a8 8 0 0 0 1 0v1a17 17 0 0 1 0 1v1h1-1v3h1v2h1Zm-5-3h-1V8a1 1 0 0 0-1 1v2h1l1-1a11 11 0 0 0 0-1Zm-4 4Zm16-1v1h-4v-2h-1V7a6 6 0 0 1-1 0V6a2 2 0 0 0 0-1V4h2l1-1h-1a83 83 0 0 1 0-1 30 30 0 0 1 1-1h2v3h1v2h-1v1h-1v3h2v1a333 333 0 0 0 0 1Zm10-6a47 47 0 0 0 0 2v1a13 13 0 0 0-1 0h-5 1a2 2 0 0 1 0 1h2a35 35 0 0 0 1 0l1 1v1l-1 1h-4v-1h-1v-1h-1a41 41 0 0 0 0-2V6l1-1V4h1a3 3 0 0 0 0-1h5a119 119 0 0 0 1 2v1Zm-2 1V5h-3v1h-1l1 1h2a2 2 0 0 0 1 0Zm20-5-1 1h1-1v3h1l-1 1v3a17 17 0 0 1 0 2h-1a17 17 0 0 1 0 1 273 273 0 0 1-2 0h-1v-1l-1-1v-1h-1a4 4 0 0 1 0-1l-1-1h-1v5h-2a3 3 0 0 1-1 0v-1a11 11 0 0 1 0-1V5a294 294 0 0 0 1-3h1a15 15 0 0 1 1 0h1v2h1l1 1v1h1v1h1V3a6 6 0 0 1 0-2h1a4 4 0 0 0 1 0l1 1V1v1h1Zm10 6v1h-1v2h-1v1a9 9 0 0 0-1 0l-1 1h-2l-1-1h-1v-1h-1a2 2 0 0 0 0-1V6h1V4h1a8 8 0 0 1 1-1h2v1h2v1h1v2h1v1Zm-3 0V7a22 22 0 0 0-1-1h-1l-1 1v1h-1a3 3 0 0 1 1 1v1a13 13 0 0 1 1 0h1V9h1V8Zm17-2v2l-1 1a8 8 0 0 1 0 1 57 57 0 0 0-1 1v1a4 4 0 0 0-1 0v1h-1a6 6 0 0 1-1 0v-2l-1-1V9h-1v3h-1v1h-2v-1h-1V9a4 4 0 0 0-1-1l-1-1V5h1l1-1v1a14 14 0 0 0 1 0v1a1 1 0 0 1 1 1v1h1V6h1V4l1 1h2v1a86 86 0 0 0 1 2V6a18 18 0 0 1 1 0V4h1v1h1v1Z"/>
</svg>
