<svg xmlns="http://www.w3.org/2000/svg" fill="none" viewBox="0 0 31 38">
  <g fill="#FBBC05" fill-rule="evenodd" clip-path="url(#a)" clip-rule="evenodd">
    <path d="m18 14 4-3v3h-4Zm1 5 1 1c-3 2-4 5-5 8-1-3-1-6-4-8l1-1h1c-1-3 0-4 1-5l1-1 2 1 1 5h1ZM15 1l5 1a12 12 0 0 1 4 2l3-2c-1 4-6 8-10 10l-2-1-2 1c-3-2-8-6-9-10l3 2 1-1a12 12 0 0 1 7-2Zm-3 13-4-3v2l1 1h3Z"/>
    <path d="m24 10 2-3v1l1 6v5l3 12-4-4-3 5-3-3-5 8-5-8-3 3-3-5-4 4 3-12v-5l2-6V7l2 3-1 3 2 2 1 1h2v2l-4 2 3 2v1c3 2 4 9 5 12 1-3 3-10 5-12l1-1 3-2-4-2v-2h1l2-1 1-2v-3Z"/>
  </g>
  <defs>
    <clipPath id="a">
      <path fill="#fff" d="M0 0h30v37H0z" transform="translate(0 1)"/>
    </clipPath>
  </defs>
</svg>
