<svg xmlns="http://www.w3.org/2000/svg" fill="none" viewBox="0 0 394 62">
  <path fill="#fff" d="M42 45v1l-1 2v3l-1 2-1 3h-1l-1 1h-1l-1 1-2 1-2 1h-5l-3 1h-2l-3-1h-7l-2-1H8l-1-1H6l-1 1-1-1-1-2v-2a60 60 0 0 1 1-2l-1-1-1-1v-9a28 28 0 0 1-1-4V27a15 15 0 0 0 0-3l1-2V8a157 157 0 0 1 0-5V2l1-1a47313 47313 0 0 1 11 0h1a101278 101278 0 0 0 4 0l4 1h3l1 1h4l1 1 2 1h2l1 2h1l2 3a11 11 0 0 1 2 5v6l-1 2-1 2-1 1h-1v1l-2 1-1 2h-1l1 1v1h1l1 1a23789316490879 23789316490879 0 0 1 2 4l2 2a39 39 0 0 0 1 4v2ZM28 22v-3l-1-2-1-1-1-1a71 71 0 0 0-7-1l-1-1h-1l-1 1a46 46 0 0 1-1 5v4l1 1v1l2-1h1l1 1h5l2-1 1-1 1-1Zm3 21v-2l-1-1-1-2a13 13 0 0 0-2-1l-3-1h-7l-1 1-1 1v4l1 1v1h-1v1h1l-1 1v1h1c1 1 3 2 5 1h5l1-1v-1c2 0 3-1 4-3Zm67-26v5l-1 2v4l-1 1-1 1v1l-1 1-1 2-2 1-2 2-3 1-2 2v2h1v1l2 2 1 1 1 1 1 1h1v1l1 1 1 1v2l-1 2-1 1h-2l-1 1h-1l-1 1-1 1-1 1h-2l-2-1-1-1v-1l-1-1v-2h-2l-2-3-2-1-2-1-1-2-1-1-1-1h-3v1l-1 1v10l-1 1h-5a48 48 0 0 0-6-1l-1-1a15 15 0 0 0 0-3v-7h-1v-5l-1-2V29l1-1v-2a55 55 0 0 1 0-2l-1-1v-1l1-1-1-1h1v-1l-1-2 1-2V8l1-1V6h3l1-1h2l1-1 2-1 1 1 2-1h2a28636 28636 0 0 0 12 0h4l2 1h3l1 1 1-1h2l1 1v1h2l1 1v1a176 176 0 0 0 4 5v2l1 2ZM54 6h-1 1Zm31 16h-1v-1l-1-2-1-1-1-1h-1v-1l-2 1H65l-1 1-1 1v5l1 1v1a3 3 0 0 1 0 3 4 4 0 0 0-1 0l1 1 1-1h3l4 1h2l1-1 3-2h3l1-1 1-1 1-1v-1l1-1Zm58 29v1l-1 1-1 1h-3l-1 1a9 9 0 0 1-1 1h-1l-6 1h-2l-1-1h-4a31 31 0 0 1-2 1h-2v-1h-1l-2-1-3-1-1-1-1-1a31 31 0 0 1-1-3v-1l-1-1v-1l-1-1v-2h-1v-2l-1-1v-9l-1-2-1-1 1-2v-2l1-2v-2l1-1 1-1v-2l1-1 1-1v-1l1-1 1-1v-1h1l1-1 2-2 2-1h1l1-1a18 18 0 0 0 2-1l2 1h6l1-1h4l1 1h2l2 1h1l1 1h2l3 2h1l2 2 1 1 1 2v1l1 1 1 1v2h1v1h1v7a113 113 0 0 0 1 6v4l-1 2-1 2-2 2v2h-1l-1 2v2l-1 1h-1l-1 1h-4Zm-1-20-1-1v-3a14 14 0 0 0-2-4l-2-1-1-1h-1l-1-1a60 60 0 0 0-3 0h-2l-4 2-4 4v1l-1 1v1l-1 1 1 1v4h1v2l1 1v1l1 1 1 1 2 1h8l-1-1h1l2-1a9 9 0 0 0 1-2h1l2-1 1-1v-1l1-4Zm66-19v3h-1v1l-1 1v1h-1v1l-1 1-2 2-1 2-1-1-2-1h-1a3 3 0 0 1 0-1h-2l-1-1h-1l-1-1-1-1h-4l-2 1-1 1-2 1h-1l-1 1a14 14 0 0 0-1 2l-1 2v2l-1 1-1 1 1 1-1 1v2l1 1 1 2 2 1a15 15 0 0 0 1 2 70589314707378 70589314707378 0 0 0 9 3h2l2-1h2a24 24 0 0 1 4 0v-1h1l1 1v2l3 8a81 81 0 0 0-6 4l-1 1h-3v1l-1-1-1 1a82 82 0 0 0-3 0h-2a113 113 0 0 0-2 0h-2l-1-1h-2v1h-1l-2-1h-2l-2-1a27 27 0 0 0-3-3l-1-1h-1l-1-1-2-2v-1l-1-1-1-2a282 282 0 0 1-2-8V27h1v-7h1v-1a6 6 0 0 0 2-2v-1l2-1 1-1v-3h1l1-1h1l2-2 1-1h1l1-1 2-1h1l1-1h7V3h7l1 1h2l2 1 2 1 2 1 1 1 2 1 1 2v1Zm53 0-1 1v2h-1v2l-1 1h-1v1l-1 1-1 2-2 2-1-1-1-1h-2a3 3 0 0 1 0-1h-2l-1-1-1-1-2-1h-4l-1 1-2 1-1 1h-2v1h-1a14 14 0 0 0-1 2l-1 2v2l-1 1v3h-1l1 2v1l2 2 1 1a15 15 0 0 0 2 2 213409556092066 213409556092066 0 0 0 8 3h3l2-1h1a24 24 0 0 1 4 0l1-1 1 1v2l3 8a81 81 0 0 0-5 4l-2 1h-2l-1 1-1-1-1 1a82 82 0 0 0-3 0h-2a113 113 0 0 0-2 0h-2l-1-1h-1l-1 1h-1l-1-1h-3l-1-1a27 27 0 0 0-4-3l-1-1h-1l-1-1-1-2-1-1-1-1v-2a282 282 0 0 1-2-8v-1l-1-4v-2l1-3 1-1v-4l-1-1v-1h1v-1a6 6 0 0 0 2-2v-1l2-1 1-1v-2l1-1h1l1-1 2-2 1-1h1l1-1 2-1h1l1-1h7V3h8v1h3l1 1 3 1 1 1 2 1 1 1 2 2v1Zm45 39-1 1v1l-1 1h-4v1a9 9 0 0 1-1 1h-1l-6 1h-3l-1-1h-3a31 31 0 0 1-2 1h-2v-1h-1l-2-1-3-1-1-1-1-1a31 31 0 0 1-1-3v-1h-1v-1l-1-1-1-1v-2l-1-2v-7l-1-2 1-1-1-2-1-1v-2l1-1v-1l1-2v-2l1-1 1-1v-2l1-1 1-1v-1l1-1v-1l1-1h1l1-1 1-2 2-1h2l1-1a18 18 0 0 0 1-1h1l2 1h6l1-1h4l1 1h2l2 1 1 1h3l3 2h1l1 2 2 1v2l1 1v1l1 1 1 1v1h1v1h1v7a113 113 0 0 0 1 6v1l-1 3-1 2-1 2-1 2v1l-1 1-1 2-1 2v1h-1l-1 1h-4Zm-2-20v-3l-1-1a14 14 0 0 0-1-4l-2-1-1-1h-1l-2-1a60 60 0 0 0-3 0h-1l-5 2-3 4-1 1v1l-1 1v2l1 1v1l-1 1 1 1 1 1v2l1 1 1 1v1h1l2 1h7v-1l3-1a9 9 0 0 0 1-2h1l2-1 1-1v-5Zm53 14v3a11 11 0 0 1 0 3l-1 1v2l-1 1v2h-1l-1 1h-3a6 6 0 0 0-3 0l-1 1h-9l-1 1a13 13 0 0 0-2-1h-7l-1 1v-1a27 27 0 0 1-1-8v-2a16 16 0 0 1-1-7 1556 1556 0 0 0 2-14v-5l-1-1a12 12 0 0 1 0-3V8a92 92 0 0 1 1-3V4l1-1V2h5l1 1h1a31 31 0 0 0 3-1h5l-1 1a31 31 0 0 1 1 2v4l-1 1 1 1-1 4v3l-1 1v1a11 11 0 0 1 1 2l-1 1v9l-1 2v6a32 32 0 0 1 1 3l1 1h1l2-1a42 42 0 0 0 4 0h2l1-1 4-1h1l1 1v3Zm36-37v4l-1 1v1h-3l-3 1-1 1v10l-1 1v15l2 1h1l2 1v4a45 45 0 0 0 0 8v1l-1 2-2-1h-4l-1 1h-10a2653 2653 0 0 1-6-2l-1-1-1-1v-8l2-1h2v-1l1 1h1l2-1V27l1-1v-1l-1-1a18 18 0 0 1 1-2l-1-2v-6h-6l-1-1-1-1V8l1-1V5l1-1h1l1-1h3a12 12 0 0 0 3 0l2-1h4a9 9 0 0 0 1 0h6a14 14 0 0 0 4 1h2l1 3v2Z"/>
</svg>
