<svg xmlns="http://www.w3.org/2000/svg" fill="none" viewBox="0 0 548 33">
  <path fill="#fff" d="M14 4v2h-1v1h-2l-1 1v4a812 812 0 0 1 0 7h2v2a19 19 0 0 0 0 4v1h-1l-1-1-1 1H4a1120 1120 0 0 1-3-3v-2h1c0-1 0-1 0 0l1-1h2v-9a7 7 0 0 1 0-1V8L4 7H1V3h1l1-1h1a5 5 0 0 0 1 0h6a6 6 0 0 0 2 0l1 2Zm14 6-1 1v1h-1v-1h-1l-1-1h-1l-1 1v2h1v1h1l1 1a11 11 0 0 0 1 0v1h1v1a9 9 0 0 1 0 2 49 49 0 0 1 1 2 9 9 0 0 0-1 1v1h-1v1h-1v1h-1a18 18 0 0 1-1 0v1h-1l-1-1-1 1-1-1h-1v-1h-1v-3l1-1a13 13 0 0 1 1 0v1h3v-3h-1v-1h-1a3 3 0 0 0-1-1h-1v-1h-1v-2l-1-1v-1a35 35 0 0 0 1-1V8l1-1a55 55 0 0 0 2-1 26637 26637 0 0 0 2 0l1-1 1 1h1l1 1a6 6 0 0 0 1 0v1a69 69 0 0 1 1 1v1Zm32-5v14a5 5 0 0 1 0 1v1a33 33 0 0 1 0 2v2h-6v-3a4 4 0 0 1 0-1v-3l-1-1a33 33 0 0 0-1 0l-1-1h-1l-1 1-1-1v1a3 3 0 0 0-1-1h-1v8l-1 1h-5v-1h-1v-6a54 54 0 0 1 1-4v-2h-1v-1a6 6 0 0 0 0-1V9h1V6a4 4 0 0 0-1-1V4h1V3h5v1h1v3a12 12 0 0 1 0 3h1l1 1 1-1h2a8 8 0 0 0 3 0V3h3l1-1a9 9 0 0 0 2 0v3Zm19 7a85 85 0 0 0 0 3h-1v1a25 25 0 0 0-1 1H67h1v1a5 5 0 0 1 0 1h1v1h4a66 66 0 0 0 1 0h2v2h1v1h-1v1h-1l-1 1h-5l-2-1-1-1h-1v-1h-1v-1a79 79 0 0 0-1-4v-1a1261 1261 0 0 1 0-1v-3l1-1v-1h1l1-1c-1 0 0 0 0 0l1-2a6 6 0 0 0 1 0h1V6a215 215 0 0 1 3 0h2l1 1a206 206 0 0 0 4 3v2Zm-5 1v-3h-4l-1 1a2891 2891 0 0 0 1 2h2a3 3 0 0 0 2 0Zm18 9h-1v2a2 2 0 0 1 0 1h-3a13 13 0 0 1-1 0h-1v-1h-1l-1-1-1-1v-2h-1v-1a5 5 0 0 1 0-1V8l1-1V3h2a861 861 0 0 1 3 0v1a17 17 0 0 0 0 2 123 123 0 0 0-1 6h1a5 5 0 0 0-1 2v4a1011 1011 0 0 1 3 2h1v2h1Zm19-5-1 1v1h-1v1l-1 1h-1l-1 1h-1l-1 1h-1v-1l-1 1a86 86 0 0 0-2-1v6a5 5 0 0 1 0 1l-1 1h-3l-1-1a6 6 0 0 1-1-1v-6h1l-1-2a636 636 0 0 0 2-9l1-1V9l1-1h1V7h2a12 12 0 0 1 1 0h1a46 46 0 0 1 2 0h2a6 6 0 0 0 0 1h1l1 1 1 1v1h1v6Zm-5-2v-1l-1-1-1-1h-3a4 4 0 0 1 0 1l-1 1v2a43 43 0 0 0 1 2h4l1-2v-1Zm14-10a4 4 0 0 1-1 2 101 101 0 0 1-1 1h-4l-1-1a36 36 0 0 0 0-2V3l1-1h1V1h2l1 1h1v1l1 1v1Zm0 8-1 1v11l-1 1h-3v-1h-1l-1-1 1-1-1-1v-5l1-1v-2a6 6 0 0 1 0-1v-1h2a86 86 0 0 1 1 0h1v1h1v-1 1h1Zm17 6v4h-1l-1 1h-1v-1h-1v-3a20 20 0 0 0-1-1 9 9 0 0 0 0-2v-1a12 12 0 0 0-1-1l-1-1h-2a80 80 0 0 1 0 1v2h-1l1 1v4h-1v2h-4l-1-1v-2a10 10 0 0 0 0-3v-2a37 37 0 0 1 1-3v-1h1v-2l1-1 1-1a65 65 0 0 1 1 0h2a34 34 0 0 1 2 0l1 1h1v1h1v1l1 1h1v2l1 1v4Zm20-3v1l-1 1h1v1h-1l1 1v1a9 9 0 0 1-1 1v1a10 10 0 0 1 0 2 27 27 0 0 0-2 3l-1 1a12 12 0 0 1-1 1l-1 1h-1v1h-1l-1 1h-1l-1-1v-2h-1v-1h1l1-1h1v-1h1v-1a1724213957550 1724213957550 0 0 0 0-1l1-1v-1h-2v1h-1l-1-1h-2a20 20 0 0 0-1-1h-2v-3h-1v-4a3 3 0 0 1 0-1v-1l1-1v-1h1v-1a7 7 0 0 1 1-1h1V8h2a127 127 0 0 1 1-1h5v1a9 9 0 0 1 0-1h1a31 31 0 0 1 1 2h1a43 43 0 0 0 1 3v2h1v2Zm-6 0v-3h-1l-1-1-1 1h-1a3 3 0 0 0-1 0v1h-1a86 86 0 0 0 0 1 21 21 0 0 0 1 3l1-1v1h2v-1h1a79 79 0 0 1 1-1Zm29-12v2l-1 1h-2v1h-1v1a159 159 0 0 1 0 2l1 1h-1v7h2v2a19 19 0 0 0 0 4v1h-1v-1l-2 1h-4a1092 1092 0 0 1-4-3v-2h2v-1h2v-8a51 51 0 0 0 0-1V7h-3l-1-1V4l1-1 1-1h1a5 5 0 0 0 2 0h2a4 4 0 0 0 1 0h2a6 6 0 0 0 2 0h1v2Zm15 18v1l-1 1-1 1h-1l-1 1-1-1h-3v-1l-1-1v-1h-1v-9h-1a12 12 0 0 1-1 1v-2a4 4 0 0 0-1-2 6 6 0 0 1 1 0V8h3l1-1V3h1a255 255 0 0 0 1 0h3v1a6 6 0 0 0 0 1v2h-1l2 1h1v4l-1 1h-2v1a72 72 0 0 0 0 1h-1v4h1l1 1h1a86 86 0 0 1 0-1l1 1v1a120 120 0 0 0 1 1Zm14-12v1h-1v1h-1v-1h-1l-1-1h-1l-1 1v2h1v1h1l1 1a11 11 0 0 0 1 0l1 1v1a9 9 0 0 1 1 2 48 48 0 0 1 0 2 9 9 0 0 0-1 1v1h-1v1h-1v1h-1a17 17 0 0 1-1 0v1h-1l-1-1-1 1-1-1-1-1h-1v-3l1-1a13 13 0 0 1 1 0v1h3v-3h-1v-1h-1a3 3 0 0 0-1-1h-1v-1h-1v-2l-1-1v-1a35 35 0 0 0 1-1V8l1-1a54 54 0 0 0 2-1 26637 26637 0 0 0 2 0l1-1 1 1h1l1 1a6 6 0 0 0 1 0l1 1a60 60 0 0 1 0 1v1Zm25-4-1 1-1 1h-3V7h-2a120 120 0 0 1-1 2 126 126 0 0 1 1 1 18 18 0 0 0 2 2 183 183 0 0 1 1 1h1l1 1v1a24 24 0 0 1 1 1v1l1 1v3a3 3 0 0 1-1 1 7 7 0 0 1-1 1l-1 1v1h-1l-1 1h-6l-1-1v-1h-2l1-1v-1l1-1 1-1v-1l2 1h3v-3a16 16 0 0 1-1-1h-3v-1h-1l-1-1a153 153 0 0 0-2-2V8a43 43 0 0 0 0-1l1-2a31 31 0 0 0 1-1c-1 0-1 0 0 0V3a51 51 0 0 1 1 0V2h2a8 8 0 0 1 1-1h3l1 1h2v1l1 1a23 23 0 0 1 1 2Zm15 16-1 1v1l-1 1h-2l-1 1-1-1h-2v-1h-1v-1l-1-1v-9h-1a12 12 0 0 1-1 1l-1-1v-1a4 4 0 0 0 0-2V8h4l1-1V3h5v1a7 7 0 0 0 0 1h-1v2l1 1h2v4l-1 1h-2l-1 1v5h1v1h2v-1 1h1v1a16 16 0 0 0 1 1Zm16-13-1 1v1l-1 1v1h-3l-1 1h-1v2a11 11 0 0 1 0 1l-1 1v3a6 6 0 0 1 0 1 10 10 0 0 1 0 2v1h-2a46 46 0 0 0-2 0h-1v-3l-1-1 1-1a20 20 0 0 0 0-1 4 4 0 0 1 0-1v-1h-1a17 17 0 0 1 0-3v-1a236 236 0 0 0 0-2V8h1a3 3 0 0 0 0-1h3l1 1v2l1-1 1-1a23 23 0 0 0 2 0l1-1 1 1h1a15 15 0 0 1 1 0v1h1Zm20 14v1h-1v1h-1v1h-2v-1h-1v-1a16 16 0 0 0-1-1h-1v1a16 16 0 0 1-2 1h-2l-1 1v-1a45 45 0 0 0-4 0v-1l-1-1-1-2v-1a36 36 0 0 0 0-2 325 325 0 0 0 3-5h1l1-1h3l1 1a3 3 0 0 0 0-2 17 17 0 0 0 0-1l-2-1h-1a4 4 0 0 0-1 1h-1V7l-1-1h1l1-1h4l1 1 1-1v1h2v1h1v1a15 15 0 0 0 1 1h1a33 33 0 0 1 0 2v3h-1l1 1-1 2 1 1v1h1v1a6 6 0 0 0 0 2h1v1Zm-8-5-1-1-1-1v1l-1-1a1 1 0 0 0-1 1l-1 1v1l1 1h1a8 8 0 0 0 1 0h1a19 19 0 0 0 1-2Zm-8 6Zm36-14v1a7 7 0 0 0-1 0v2a17 17 0 0 0-2 3 79 79 0 0 0-1 2l-1 1v1h-1v1l-1 1-1 1v1l-1 1v1h-1v1l-1 1-1 2h-1v-1h-2v-1h-1v-1l1-1v-1l1-1a19 19 0 0 0 1-1 20 20 0 0 0 0-1h1a4 4 0 0 1 0-2l1-1a34 34 0 0 1 0-1h-1v-1h-1a14 14 0 0 0-1-2l-1-1h-1v-2h-1v-2l1-1 1-1h1a137 137 0 0 1 6 5v-1l1-1a9 9 0 0 0 0-2h1a43 43 0 0 1 1-2h2v1h2v1l1 1Zm33 13v1h-1a72 72 0 0 0-3 0h-2v-1l-1-1v-2l-1 1h-6a32 32 0 0 1-2 0l-1 1v2l-1 1h-5v-1a96 96 0 0 1 1-2v-2l1-1a11 11 0 0 0 0-1l1-2v-1a183 183 0 0 0 1-2l1-1v-1h1a5 5 0 0 0 0-2h1V7h1V6a51 51 0 0 0 1-1l1-1V3h1a4 4 0 0 0 1 0h3l1 1 1 1v1h1v2l1 1v2h1v3a25 25 0 0 1 1 3l1 1a29 29 0 0 0 0 2v1l1 1v1Zm-9-8-1-1v-2h-2v1l-1 1v2h-1 2v1l1-1h1l1-1Zm26 4v4h-1l-1 1h-1v-1h-1v-3a20 20 0 0 0-1-1 9 9 0 0 0 0-2v-1a12 12 0 0 0 0-1 2 2 0 0 0-1 0l-1-1h-1a80 80 0 0 1-1 1v7c-1 0-1 0 0 0v1l-1 1h-4v-1h-1v-2a10 10 0 0 0 1-3v-2a37 37 0 0 1 0-3v-1h1v-2l1-1 1-1a65 65 0 0 1 1 0h2a34 34 0 0 1 2 0l1 1h1v1h1v1l1 1h1v2l1 1v4Zm10-14a4 4 0 0 1-1 2 101 101 0 0 0-1 1h-4l-1-1a72 72 0 0 0 0-4V2h1l1-1h2l1 1h1v1a81 81 0 0 0 1 2Zm-1 8v10l-1 1v2h-3l-1-1h-1V14a6 6 0 0 1 0-1v-1h3a86 86 0 0 0 1 0h1v1h1v-1 1Zm29 5a24 24 0 0 0-1 2v3a5 5 0 0 1 0 1h-4v-1l-1-1v-3l1-1-1-1v-1h-3v1a80 80 0 0 0-1 1v2h-1a559 559 0 0 0 0 4h-4v-2l-1-1h1v-2a5 5 0 0 0 0-2v-1l-1-1h-1a5 5 0 0 0-1-1v1h-1l-1 1v1l-1 2v1a11 11 0 0 1 0 3l-1 1h-2v1l-1-1a175 175 0 0 1-1-1v-6h1l-1-1a4 4 0 0 1 1-2v-2l1-1a49 49 0 0 0 1-2h3l1-1h4v1h2a101 101 0 0 0 0 1l1 1 1-1h1V9h1a255 255 0 0 1 1-1h1v1h3v1h1l1 1v1h1v5h1v1Zm20 5v1h-1v1h-1v1h-2v-1h-1v-1a16 16 0 0 0-1-1l-1 1a16 16 0 0 1-2 1h-2l-1 1v-1a45 45 0 0 0-4 0v-1l-1-1v-2h-1v-1a36 36 0 0 0 0-2 325 325 0 0 0 3-5h1l2-1c0 1 0 1 0 0h2l1 1h1a3 3 0 0 0-1-2 17 17 0 0 0 0-1l-1-1h-1a4 4 0 0 0-2 1h-1V6h-1 2V5h5v1l1-1v1h2v1h1v1a15 15 0 0 0 1 1h1a33 33 0 0 1 0 2v3c-1 0-1 0 0 0v1l-1 2 1 1v1h1v1a6 6 0 0 0 0 2h1v1Zm-8-5-1-1v-1l-1 1-1-1a1 1 0 0 0-1 1l-1 1h1v2h1a8 8 0 0 0 1 0h1a19 19 0 0 0 1-2Zm-8 6Zm29-2v2a2 2 0 0 1-1 1h-2a13 13 0 0 1-2 0l-1-1h-1l-1-1v-1h-1v-3l-1-1v-4l1-1V4l1-1h2a3 3 0 0 0 2 0v1h1a17 17 0 0 0-1 2 119 119 0 0 0 0 6 5 5 0 0 0-1 2v3h1v2l1 1h2v1l1 1Zm27-16v1h-4v1h-6a21 21 0 0 0 0 3 4 4 0 0 0 0 1h1v1h7v3a86 86 0 0 1 0 3h-5a46 46 0 0 0-3 0 34 34 0 0 1 0 1v5l-1 1h-5v-1a5 5 0 0 1 0-1h-1v-1h1v-1a14 14 0 0 1 0-4v-5a4 4 0 0 1 0-1V3h2l1-1h3a9 9 0 0 1 4 0h2a13 13 0 0 1 2 0h1l1 1v2a4 4 0 0 1 0 1Zm16 3v1h-1v2h-1v1h-3v1h-1v1l-1 1a11 11 0 0 1 0 1v3h-1v1a6 6 0 0 1 0 1 10 10 0 0 1 0 2v1h-1s0 1 0 0a46 46 0 0 0-3 0h-1v-5a20 20 0 0 0 0-1 4 4 0 0 1 0-1v-1a17 17 0 0 1-1-3l1-1h-1a236 236 0 0 0 1-2V8a3 3 0 0 0 0-1h4v2l1 1V9h1V8a23 23 0 0 0 2 0h1V7l1 1h1a15 15 0 0 1 1 0l1 1Zm9-4a4 4 0 0 1 0 2h-1a101 101 0 0 1-1 1h-4V7h-1a36 36 0 0 0 0-2V3h1V2h1V1h2l1 1h1v1h1v2Zm0 8v3h-1 1v2l-1 1v6l-1 1h-3v-1h-1l-1-1 1-1v-1h-1v-5h1v-3a6 6 0 0 1 0-1v-1h2a86 86 0 0 1 1 0h1v1h1v-1l1 1Zm19-1a152 152 0 0 0-1 3v1a25 25 0 0 0-2 1h-9l1 1a4 4 0 0 1 0 1l1 1a255 255 0 0 1 1 0h2a65 65 0 0 0 1 0h2l1 1v1h1l-1 1v1h-1l-1 1h-6l-1-1-1-1h-1l-1-1a43 43 0 0 0 0-1h-1a69 69 0 0 0 0-4v-1a126 126 0 0 0-1-1h1v-4h1v-1h1V9h1l1-2h2V6h5l1 1a288 288 0 0 0 4 3v2Zm-5 1v-2l-1-1h-4v1a289 289 0 0 1-1 2h4a3 3 0 0 0 2 0Zm22 6v4h-1l-1 1h-1v-1h-1v-3l-1-1a9 9 0 0 0 0-2v-1a12 12 0 0 0-1-1l-1-1h-2a80 80 0 0 1 0 1v2s-1 0 0 0v5c-1 0-1 0 0 0v1l-1 1h-4l-1-1v-2a10 10 0 0 0 1-3v-2a37 37 0 0 1 0-3v-1h1v-2l1-1 1-1a65 65 0 0 1 1 0h2a34 34 0 0 1 2 0l1 1h1v1h1v1l1 1h1v2l1 1v4Zm19-11v1l-1 2v4a16 16 0 0 0 0 1v5a106 106 0 0 0-1 2h-1a17 17 0 0 0-1 2h-1l-2 1h-1l-1-1h-1l-2-1a8 8 0 0 0-1 0h-1v-1a310 310 0 0 1-1-2l-1-1v1-7l1-1v-1h1l1-1a11 11 0 0 1 3-1h3a38 38 0 0 0 1 0h1-1V9a6 6 0 0 1 0-2l1-1h-1V4a5 5 0 0 0 1-1V1l1-1h2v1h1v2h1-1a6 6 0 0 1 1 1v4Zm-6 10a7 7 0 0 1 0-2h-1v-1h-3v2h-1v1l1 1v1h3l1-1v-1Zm20-8-1 1v1h-1v-1h-1l-1-1h-2v3h1v1h1v1a11 11 0 0 0 2 0v1h1v1a9 9 0 0 1 0 2 36 36 0 0 1 0 2 9 9 0 0 0 0 1v1h-1v1h-1l-1 1a17 17 0 0 1-1 0l-1 1-1-1-1 1h-1v-1h-1v-1h-1v-3l1-1a13 13 0 0 1 1 0v1h3v-2l-1-1v-1h-1a3 3 0 0 0-1-1h-1l-1-1v-1l-1-1v-2a29 29 0 0 0 1-1V8l1-1a54 54 0 0 0 2-1 26637 26637 0 0 0 2 0l1-1 1 1h1l1 1a6 6 0 0 0 1 0v1a60 60 0 0 1 1 1v1Z"/>
</svg>
