<svg width="28" height="28" viewBox="0 0 28 28" fill="none" xmlns="http://www.w3.org/2000/svg">
<g opacity="0.9">
<path d="M3.77989 13.004C9.60873 10.4645 13.4956 8.79028 15.4404 7.98143C20.9931 5.67184 22.1469 5.27058 22.8989 5.25719C23.0643 5.25447 23.4342 5.29546 23.6738 5.4898C23.876 5.65393 23.9316 5.87568 23.9583 6.0313C23.9849 6.18692 24.0181 6.54141 23.9917 6.81844C23.6908 9.98004 22.3888 17.6525 21.7265 21.1937C21.4462 22.692 20.8943 23.1944 20.36 23.2436C19.1988 23.3504 18.3171 22.4762 17.1925 21.739C15.4328 20.5855 14.4385 19.8674 12.7303 18.7417C10.7562 17.4408 12.036 16.7258 13.161 15.5573C13.4555 15.2515 18.5715 10.5981 18.6705 10.1759C18.6828 10.1232 18.6943 9.92639 18.5774 9.82243C18.4605 9.71857 18.2879 9.75403 18.1634 9.78235C17.9869 9.82234 15.1756 11.6805 9.72951 15.3568C8.9316 15.9048 8.20879 16.1718 7.56116 16.1578C6.8473 16.1424 5.47396 15.7541 4.45312 15.4223C3.20093 15.0152 2.2057 14.8 2.29237 14.1087C2.33752 13.7486 2.83333 13.3805 3.77989 13.004Z" fill="#A0C1D7"/>
</g>
</svg>
