<svg width="28" height="28" viewBox="0 0 28 28" fill="none" xmlns="http://www.w3.org/2000/svg">
<g opacity="0.9">
<g clip-path="url(#clip0_256_578)">
<path fill-rule="evenodd" clip-rule="evenodd" d="M16.2888 10.4853C17.0171 10.1124 17.9439 9.56354 18.8717 8.81154C19.0674 9.22865 19.0888 9.59263 18.988 9.88653C18.9166 10.0937 18.782 10.2738 18.605 10.4171C18.4133 10.572 18.174 10.6848 17.9094 10.7458C17.4073 10.8619 16.8211 10.7941 16.2888 10.4853ZM16.4151 14.3056L17.3792 14.8774C15.4106 16.0101 14.8755 18.1135 14.2397 20.1622C13.6041 18.1135 13.0689 16.0101 11.1004 14.8774L12.0645 14.3056C12.1578 14.2694 12.2375 14.2038 12.2922 14.1183C12.347 14.0327 12.374 13.9316 12.3693 13.8293C12.2809 11.9107 12.7855 11.0622 13.4662 10.5295C13.7103 10.3387 13.9768 10.2428 14.2397 10.2428C14.5027 10.2428 14.7692 10.3387 15.0134 10.5295C15.694 11.0622 16.1986 11.9107 16.1103 13.8293C16.1056 13.9316 16.1326 14.0327 16.1873 14.1183C16.2421 14.2038 16.3218 14.2694 16.4151 14.3056ZM14.2397 1.77766C15.3542 1.80838 16.4714 2.03049 17.441 2.46259C18.1124 2.7622 18.739 3.15795 19.3063 3.6312C19.5624 3.84484 19.7734 4.05123 20.0058 4.28883C20.6325 4.31108 21.5485 3.59624 21.9737 2.92736C21.2419 5.39055 17.9024 8.29935 15.5904 9.41239C15.5894 9.41198 15.5888 9.41141 15.5881 9.41092C15.1732 9.08565 14.7065 8.92301 14.2397 8.92301C13.773 8.92301 13.3064 9.08565 12.8915 9.41092C12.8908 9.41133 12.8901 9.41206 12.8892 9.41239C10.5771 8.29935 7.23768 5.39055 6.50586 2.92736C6.93102 3.59624 7.84697 4.31108 8.47372 4.28883C8.70618 4.05132 8.91713 3.84484 9.17324 3.6312C9.74054 3.15795 10.367 2.7622 11.0385 2.46259C12.0082 2.03049 13.1254 1.80838 14.2397 1.77766ZM12.1907 10.4853C11.4624 10.1124 10.5356 9.56354 9.60784 8.81154C9.41221 9.22865 9.39078 9.59263 9.49149 9.88653C9.563 10.0937 9.69761 10.2738 9.87451 10.4171C10.0663 10.572 10.3056 10.6848 10.5702 10.7458C11.0723 10.8619 11.6584 10.7941 12.1907 10.4853Z" fill="#A0C1D7"/>
<path fill-rule="evenodd" clip-rule="evenodd" d="M19.8884 7.89028C20.3992 7.36106 20.8493 6.77529 21.2112 6.25259L21.395 6.60776C21.9867 7.82322 22.2942 9.03379 22.2942 10.3962L22.2929 12.558L22.304 13.6787C22.3469 16.43 22.9267 19.2137 24.2402 21.7611L21.4921 19.486L19.5475 22.7256L17.5047 20.7512L14.2402 26.19L10.9758 20.7513L8.93301 22.7257L6.98849 19.4861L4.24023 21.7612C5.55373 19.2138 6.13357 16.4301 6.1765 13.6788L6.18762 12.5581L6.18635 10.3962C6.18635 9.03379 6.49373 7.82322 7.08563 6.60785L7.26936 6.25267C7.63127 6.77537 8.08127 7.36106 8.59214 7.89036L8.43262 8.23055C8.12269 8.89128 8.02008 9.63007 8.2615 10.3327C8.41714 10.7852 8.70119 11.1733 9.06738 11.4696C9.42293 11.7573 9.84373 11.9512 10.2843 12.0531C10.5713 12.1194 10.8636 12.1467 11.1541 12.1374C11.0863 12.5319 11.0567 12.941 11.0548 13.3579L8.46246 14.8951L10.4629 16.0463C10.6228 16.1384 10.775 16.2438 10.918 16.3616C12.5673 17.8819 13.5589 22.3794 14.2403 24.5762C14.9218 22.3794 15.9133 17.8819 17.5627 16.3616C17.7057 16.2438 17.8579 16.1384 18.0178 16.0463L20.0183 14.8951L17.4258 13.3579C17.4239 12.941 17.3943 12.5319 17.3265 12.1374C17.617 12.1467 17.9094 12.1194 18.1963 12.0531C18.6369 11.9512 19.0578 11.7573 19.4132 11.4696C19.7794 11.1733 20.0635 10.7852 20.219 10.3327C20.4606 9.63007 20.3579 8.89136 20.048 8.23055L19.8885 7.89036L19.8884 7.89028Z" fill="#A0C1D7"/>
</g>
</g>
<defs>
<clipPath id="clip0_256_578">
<rect width="20" height="24.4444" fill="white" transform="translate(4.24023 1.77765)"/>
</clipPath>
</defs>
</svg>
