<svg xmlns="http://www.w3.org/2000/svg" fill="none" viewBox="0 0 354 375">
  <path fill="url(#a)" d="M29 0 0 4v32l2 31v26l-2 37 2 63v64l2 17-4 20v17l1 81 34-5 19 5h74l12-3 38 3 35-10 19 10 117 2 1-68 4-72-4-12 2-19V113l-1-11 1-13V0h-53l-17 3-10-3h-55l-4 3-11-3h-38l-22 3-8-3H29Z"/>
  <defs>
    <linearGradient id="a" x1="176.2" x2="176.2" y1="0" y2="338.3" gradientUnits="userSpaceOnUse">
      <stop offset=".3" stop-color="#F9F5F0"/>
      <stop offset="1" stop-color="#F9EDCF"/>
    </linearGradient>
  </defs>
</svg>
