<svg xmlns="http://www.w3.org/2000/svg" fill="none" viewBox="0 0 130 17">
  <path fill="#fff" d="M12 4v2h-1v1l-1 1v1H8v1h1v1h1v1h1l-1 1H9l-1 1v-1H7v-1H6v-1H5v-1H4v3H3a11 11 0 0 0-2 0 3 3 0 0 0 0-1v-1s0-1 0 0V9L0 8h1-1 1V2h1V1h4a35 35 0 0 1 1 0h2a652 652 0 0 1 1 0v1h1a40 40 0 0 0 1 1v1ZM2 2Zm7 3H8V4H4v2a1 1 0 0 1 0 1h2l1-1h2C8 6 8 6 9 6V5Zm13 1a51 51 0 0 0-1 2v1a13 13 0 0 0-1 0h-5 1a2 2 0 0 1 0 1h2a35 35 0 0 0 1 0l1 1v1l-1 1h-4v-1h-1a119 119 0 0 0 0-1h-1a40 40 0 0 0 0-2 349 349 0 0 0 0-1V6a3 3 0 0 1 1 0V5l1-1a3 3 0 0 0 0-1h1a60 60 0 0 0 1 0h3a119 119 0 0 0 1 2v1h1Zm-3 1V5h-3v1a801 801 0 0 1 1 1h1a2 2 0 0 0 1 0Zm10-2v1h-2V5h-1v2h1v1a6 6 0 0 0 1 0l1 1a5 5 0 0 1 0 1 27 27 0 0 1 0 1l-1 1-1 1a9 9 0 0 1-1 0h-2l-1-1v-1l1-1a7 7 0 0 1 0 1h2V9h-1a2 2 0 0 0-1-1h-1V6a19 19 0 0 0 0-1V4h1a29 29 0 0 0 1-1 7379 7379 0 0 0 1 0h2a3 3 0 0 0 0 1h1a37 37 0 0 1 0 1Zm9 0a1 1 0 0 0 0 1l-1 1V6v1l-1-1h-1a60 60 0 0 1-2 2 83 83 0 0 1 0 1h1v1a60 60 0 0 1 1 0 13 13 0 0 1 1 0 1029 1029 0 0 1 1 0h1v1a333 333 0 0 1 0 1h-1a119 119 0 0 1 0 1h-3a2 2 0 0 0-1 0v-1h-1l-1-1v-1h-1V8h1-1 1V7h-1l1-1V4h2V3h2a47 47 0 0 1 1 0 60 60 0 0 1 2 1v1Zm10 1v2a17 17 0 0 1-1 3h-1 1l-1 1h-1a65 65 0 0 1 0 1h-2v-1h-2v-1a12 12 0 0 0-1-1V6a62 62 0 0 1 0-2h1a7 7 0 0 0 1 0v2a6 6 0 0 0 0 1l1 1v1h2V8h1V4h2a7 7 0 0 1 0 1v1Zm10 0a43 43 0 0 0 0 2l-1 1h-5a2 2 0 0 1 0 1h4v1h1v1h-1v1h-4v-1h-2a119 119 0 0 1 0-1 42 42 0 0 0-1-2c1 0 1 0 0 0a349 349 0 0 1 0-1h1V5h1V4h1a3 3 0 0 0 0-1h1a60 60 0 0 1 1 0h2a104 104 0 0 0 2 2v1Zm-2 1V6h-1V5h-2v1a801 801 0 0 0 1 1 2 2 0 0 0 1 0h1Zm19-3v2h-1v1a333 333 0 0 1-3 2v1h1l1 1v1h1l-1 1h-1l-1 1v-1a119 119 0 0 0-1 0v-1h-1v-1h-1a423 423 0 0 0-1 0v2h-1a11 11 0 0 0-2 0 3 3 0 0 0 0-1v-1s0-1 0 0a30 30 0 0 0 0-1V2h1V1h4a35 35 0 0 1 1 0h2a109 109 0 0 0 1 0 83 83 0 0 1 0 1h1a40 40 0 0 0 1 1v1ZM65 2Zm7 3h-1V4h-4v2a1 1 0 0 1 0 1h3V6h2V5Zm13 1a51 51 0 0 0-1 2v1a13 13 0 0 0-1 0h-5 1a2 2 0 0 1 0 1h2a35 35 0 0 0 1 0h1v3h-5v-1h-1a119 119 0 0 0 0-1h-1a40 40 0 0 0 0-2 349 349 0 0 0 0-1V6h1V5h1V4a3 3 0 0 0 1-1 60 60 0 0 0 1 0h3a119 119 0 0 0 1 2v1h1Zm-3 1V5h-2l-1 1a801 801 0 0 1 1 1h1a2 2 0 0 0 1 0Zm12 2v6h-1 1l-1 1v1h-1v-1h-1v-4h-3v-1 1h-1v-2h-1V6h1V4h1l1-1h2l1 1h1v1h1v2a2 2 0 0 1 0 1v1Zm-2-2h-1V6h-1a1265 1265 0 0 1-1 3l1 1V9h1a4 4 0 0 1 0-1h1V7Zm12-1v2a16 16 0 0 1-1 3 24 24 0 0 1-1 0h1l-1 1h-1a9 9 0 0 1 0 1h-2v-1h-2v-1a12 12 0 0 0-1-1V6a57 57 0 0 1 0-2h1a7 7 0 0 0 1 0v2a6 6 0 0 0 0 1v1a294 294 0 0 0 2 1h1V8h1V4h2a5 5 0 0 1 0 1v1Zm10 0a26 26 0 0 0 0 2l-1 1h-5a3 3 0 0 1 0 1h4v1h1v1h-1v1h-4v-1h-2a12 12 0 0 1 0-1 54 54 0 0 0-1-2 35 35 0 0 1 0-1h1V5h1V4h1a3 3 0 0 0 0-1h4a58 58 0 0 0 2 2v1Zm-2 1V6h-1V5h-2v1a80 80 0 0 0-1 0v1h2a2 2 0 0 0 1 0h1Zm10-2h-1v1h-1l-1-1-1 1v1h1l1 1h1v1a4 4 0 0 1 0 1v2h-1v1h-4v-3a7 7 0 0 1 1 1h2v-1h-1V9h-1a1 1 0 0 0 0-1h-1V7h-1V6a13 13 0 0 0 1-1V4a28 28 0 0 0 1-1 7379 7379 0 0 0 1 0h2a3 3 0 0 0 1 1 29 29 0 0 1 1 1Zm7 7v1h-4v-2h-1V8h1l-1-1a6 6 0 0 1-1 0V6a2 2 0 0 0 0-1V4h2l1-1h-1V2c1 0 1 0 0 0V1h3v3h1v2h-1v1h-1v3h2v1a9 9 0 0 0 0 1Z"/>
</svg>
