<svg xmlns="http://www.w3.org/2000/svg" fill="none" viewBox="0 0 81 40">
  <path fill="#FBBC05" d="M79 26v-5c0-2-2-2-4-2l-29-8-30-7C14 3 8 0 6 3L5 4 2 14v5l3 2 8 2 9 2 32 8 18 4 3-2 4-9Z"/>
  <path fill="#fff" d="m9 15-1-1-1-1v-1l1-2 1-1 2 1h1l1 1v1h-2v-1H9v2l1 1h1v-1l1 1v1H9Zm6 1h-1l-1-1v-2l1-1 1-1h1l2 1v4h-3Zm0-1h2v-3h-1l-1 1v2Zm6 3-1-1-1-1v-1l1-2 1-1h1l2 1v4l-2 1h-1Zm0-1h1v-1l1-1v-1h-2v3Zm4 2 1-6 1 1v1l1-1h1l1 1v1l1-1h1l1 1v1l-1 4-1-1 1-3v-1h-2v1l-1 3h-1l1-4-1-1h-1v1l-1 3h-1Zm8 2 2-5h1l-1 5h-2Zm3-6h-1v-1h2v1h-1Zm2 4v3h-2l1-6 2 1v1-1h1l1 1h1v2l-1 3h-2l1-4v-1h-1l-1 1Zm6 7-1-1h-1v-1h1a1 1 0 0 0 1 1h1l1-1v-1a1 1 0 0 1-1 1h-1l-1-1v-4l1-1a2 2 0 0 1 2 1h1v1-1h1l-1 6-1 1h-2Zm1-3 1-1v-2h-2v2l1 1Zm11 0-2-1h-1v1h1l1 1v2h-2l-2-1v-1h1v1h2v-1h-2l-1-1v-1l1-1 1-1 1 1h1l1 2Zm2 4h-1l-1-1v-2l1-1 1-1h2l1 1 1 1v1l-1 2h-3Zm1-1h1v-2l-1-1-1 1v2h1Zm5 3-1-1-1-1v-1l1-2h4l1 1v2l-1 1-1 1h-2Zm1-1 1-1v-2h-2v2l1 1Zm5-1-1 3h-1l1-5h2l-1 1 1-1h1l1 1 1 1v1l-1 3h-2l1-3v-1l-1-1-1 1Z"/>
</svg>
