<svg xmlns="http://www.w3.org/2000/svg" fill="none" viewBox="0 0 500 531">
  <path fill="#FBBC05" d="M157 135c29 22 57 46 90 62 4 1 9-3 5-7-26-26-58-46-88-66-8-5-14 6-7 11Zm29 116c7 11 16 22 26 31 9 8 21 18 33 19 6 0 8-7 4-12-7-8-19-12-27-19-9-8-17-17-24-27-5-7-17 0-12 8Zm101 92c0 7 12 7 12 0 0-8-12-8-12 0Zm-134-15 36 30c4 3 11-3 6-7l-36-29c-4-4-11 2-6 6Zm69 83c11 4 20 11 31 14 5 2 10-4 7-8-7-12-22-17-34-21-10-3-14 12-4 15ZM90 192c8 13 14 26 26 34 3 2 6-1 5-4-3-14-13-24-21-36-4-5-14 0-10 6Zm366 304 21 8 9 4h10c3 0 5-4 3-6l-8-6-10-4-22-7c-7-2-9 8-3 11ZM-3 107l12 15c2 2 6 2 8 1s4-5 3-7c-1-4-2-7-4-9l-4-8c-2-4-8-6-12-3-3 2-6 8-3 11Zm-16 68 15 22c5 6 9 14 15 19 4 2 8-2 8-6-2-8-8-15-12-21l-14-21c-5-7-17 0-12 7ZM70 6c2 20 1 47 9 66 3 6 11 2 11-3 2-10-1-21-3-31L81 4c-1-6-12-5-11 2Zm59 369 14 12c4 3 8 7 13 9 2 1 5-2 3-4-3-5-7-8-11-11l-14-11c-4-3-9 2-5 5Zm97 97 28 14c2 0 4-3 3-4-8-7-18-12-27-17-4-2-8 4-4 7Zm118 22Zm13 33c12 2 26 5 37 3 4 0 3-5 0-7-5-2-12-2-17-2l-20-2c-5 0-5 8 0 8Zm-78-403 12 17c3 6 7 11 12 15 3 3 8-1 7-5-2-6-6-12-10-17l-11-16c-4-6-14-1-10 6ZM73 285c0 6 9 6 9 0s-9-6-9 0Z" opacity=".1"/>
</svg>
