<svg xmlns="http://www.w3.org/2000/svg" fill="none" viewBox="0 0 492 484">
  <path fill="#FBBC05" d="M135 162c18 27 38 53 50 83 2 4-3 7-6 4-22-24-37-54-54-81-4-7 6-12 10-6Zm101 31c9 7 18 15 26 25 6 8 15 19 15 29 0 6-7 7-10 4-7-6-10-17-16-25-7-8-14-16-23-22-6-5 1-15 8-11Zm76 94c7 0 6 10 0 10-7 0-6-11 0-10Zm-6-120 24 34c3 4-3 9-6 5l-24-33c-4-4 2-10 6-6Zm70 65c2 10 8 19 11 29 1 4-4 8-8 5-10-7-14-20-17-31-2-9 11-11 14-3ZM188 106c11 8 23 14 29 25 2 2-1 4-3 4-13-4-21-13-31-21-5-3 0-12 5-8Zm251 337 7 19 3 8-1 9c0 2-3 4-5 2l-5-7-3-9-5-20c-2-6 8-8 9-2ZM118 20l12 11c2 2 2 5 1 8-2 1-5 3-7 2l-8-4-6-4c-4-3-5-7-2-11 1-3 7-5 10-2Zm60-11 19 14c5 5 12 8 16 14 2 4-2 8-6 7-6-2-12-7-18-12l-18-13c-6-5 1-15 7-10ZM25 80c18 2 41 3 58 11 5 3 1 9-3 10-9 0-19-3-28-5l-29-7c-6-1-4-10 2-9Zm323 68 10 13 8 12c0 3-3 5-5 3l-9-11-9-12c-2-4 3-8 5-5Zm81 91 11 25c0 2-2 3-3 2-6-7-10-15-14-24-2-3 4-7 6-3Zm14 105Zm29 13c1 10 3 23 1 33-1 3-5 2-6 0-2-5-1-11-2-16v-17c0-5 7-5 7 0Zm-353-87 15 11c5 3 10 6 13 11 2 3-2 7-5 6-5-2-10-6-14-9l-14-11c-6-4 0-12 5-8ZM271 95c5 0 5 8 0 8s-5-8 0-8Z" opacity=".1"/>
</svg>
