<svg xmlns="http://www.w3.org/2000/svg" width="126" height="119" viewBox="0 0 126 119" fill="none">
  <g clip-path="url(#clip0_296_46)">
    <path fill-rule="evenodd" clip-rule="evenodd"
      d="M15.3425 60.8147C15.2805 61.6861 14.847 62.4919 14.3146 63.1845C14.3718 63.2809 14.4289 63.3774 14.4861 63.4739C16.39 62.6995 18.3254 61.9067 19.9178 60.6069C20.5886 60.0593 20.3053 58.9033 19.6325 58.3582C18.9597 57.813 18.0605 57.6687 17.2379 57.3983C16.2481 57.0729 15.3269 56.5406 14.5508 55.8455C13.424 54.8362 12.5222 53.4417 11.0728 53.0089C10.9128 52.9611 10.7366 52.9273 10.5822 52.9911C10.2059 53.1466 10.2546 53.6933 10.3965 54.075C11.1005 55.9694 12.4984 57.5971 14.2645 58.5792C15.0279 59.0037 15.4044 59.9433 15.3425 60.8147Z"
      fill="#FEC535" />
    <path fill-rule="evenodd" clip-rule="evenodd"
      d="M44.6407 85.264L22.645 84.0392C18.1494 83.7889 14.7081 79.9412 14.9586 75.445C15.0794 73.2779 16.0592 71.2484 17.6809 69.8059L34.1427 55.1635C39.2105 50.6558 42.2722 44.3134 42.6497 37.5413L43.8757 15.5432C44.1263 11.0471 47.9738 7.60517 52.4695 7.85549C54.6363 7.97615 56.6656 8.95587 58.1079 10.5776L72.7477 27.0402C77.2546 32.1083 83.5962 35.1699 90.3676 35.547L112.363 36.7717C116.859 37.0221 120.3 40.8698 120.05 45.3659C119.929 47.533 118.949 49.5626 117.327 51.005L100.866 65.6474C95.7978 70.1551 92.7361 76.4975 92.3587 83.2697L91.1327 105.268C90.8821 109.764 87.0345 113.206 82.5389 112.955C80.372 112.835 78.3427 111.855 76.9005 110.233L62.2607 93.7707C57.7537 88.7027 51.4122 85.641 44.6407 85.264Z"
      fill="#FEC535" />
  </g>
  <defs>
    <clipPath id="clip0_296_46">
      <rect width="125.111" height="118.016" fill="white" />
    </clipPath>
  </defs>
</svg>